/* XPM */
static char *colin[] = {
/* columns rows colors chars-per-pixel */
"48 48 125 2",
"   c #191919",
".  c #1B1B1B",
"X  c #1E1E1E",
"o  c #1F1F1F",
"O  c #232323",
"+  c #242424",
"@  c #252525",
"#  c #262626",
"$  c #272727",
"%  c #282828",
"&  c #292929",
"*  c #2A2A2A",
"=  c #2B2B2B",
"-  c #2C2C2C",
";  c #2D2D2D",
":  c #2E2E2E",
">  c #2F2F2F",
",  c #303030",
"<  c #313131",
"1  c #323232",
"2  c #333333",
"3  c #343434",
"4  c #353535",
"5  c #363636",
"6  c #373737",
"7  c #383838",
"8  c #393939",
"9  c #3A3A3A",
"0  c #3D3D3D",
"q  c #3E3E3E",
"w  c #3F3F3F",
"e  c #404040",
"r  c #414141",
"t  c #444444",
"y  c #454545",
"u  c #464646",
"i  c #474747",
"p  c #484848",
"a  c #494949",
"s  c #4B4B4B",
"d  c #4C4C4C",
"f  c #4D4D4D",
"g  c #4E4E4E",
"h  c #505050",
"j  c #515151",
"k  c #525252",
"l  c #535353",
"z  c #545454",
"x  c #555555",
"c  c #575757",
"v  c #5B5B5B",
"b  c #5C5C5C",
"n  c #5D5D5D",
"m  c #5E5E5E",
"M  c #5F5F5F",
"N  c #606060",
"B  c #616161",
"V  c #626262",
"C  c #636363",
"Z  c #656565",
"A  c #666666",
"S  c #696969",
"D  c #6A6A6A",
"F  c #6E6E6E",
"G  c #6F6F6F",
"H  c #707070",
"J  c #717171",
"K  c #737373",
"L  c #747474",
"P  c #757575",
"I  c #767676",
"U  c #777777",
"Y  c #797979",
"T  c #7A7A7A",
"R  c #7B7B7B",
"E  c #818181",
"W  c #848484",
"Q  c #858585",
"!  c #878787",
"~  c #888888",
"^  c #8B8B8B",
"/  c #8E8E8E",
"(  c #8F8F8F",
")  c #909090",
"_  c #919191",
"`  c #929292",
"'  c #939393",
"]  c #949494",
"[  c #959595",
"{  c #969696",
"}  c #9B9B9B",
"|  c #9D9D9D",
" . c #9E9E9E",
".. c #9F9F9F",
"X. c #A1A1A1",
"o. c #A3A3A3",
"O. c #A5A5A5",
"+. c #A6A6A6",
"@. c #A7A7A7",
"#. c #AAAAAA",
"$. c #ABABAB",
"%. c #AFAFAF",
"&. c #B0B0B0",
"*. c #B4B4B4",
"=. c #B5B5B5",
"-. c #B6B6B6",
";. c #B7B7B7",
":. c #B9B9B9",
">. c #BABABA",
",. c #BBBBBB",
"<. c #BCBCBC",
"1. c #C0C0C0",
"2. c #C1C1C1",
"3. c #C3C3C3",
"4. c #C6C6C6",
"5. c #C7C7C7",
"6. c #C8C8C8",
"7. c #CACACA",
"8. c #CBCBCB",
"9. c #CDCDCD",
"0. c #CECECE",
"q. c #D0D0D0",
"w. c #D1D1D1",
"e. c #D2D2D2",
"r. c None",
/* pixels */
"r.r.r.r.r.r.r.r.r.r.r.r.r.r.r.r.r.r.r.r.r.r.r.r.r.r.r.r.r.r.r.r.r.r.r.r.r.r.r.r.r.r.r.r.r.r.r.r.",
"r.r.r.r.r.r.r.r.r.r.r.r.r.r.r.r.r.r.r.r.r.r.r.r.r.r.r.r.r.r.r.r.r.r.r.r.r.r.r.r.r.r.r.r.r.r.r.r.",
"r.r.r.r.r.r.r.r.r.r.r.r.r.r.r.r.r.r.r.r.r.r.r.r.r.r.r.r.r.r.r.r.r.r.r.r.r.r.r.r.r.r.r.r.r.r.r.r.",
"r.r.r.r.r.r.r.r.r.r.r.r.r.r.r.r.r.r.r.r.r.r.r.r.r.r.r.r.r.r.r.r.r.r.r.r.r.r.r.r.r.r.r.r.r.r.r.r.",
"r.r.r.r.r.r.r.r.r.r.r.r.r.r.r.r.r.r.r.r.r.r.r.r.r.r.r.r.r.r.r.r.r.r.r.r.r.r.r.r.r.r.r.r.r.r.r.r.",
"r.r.r.r.r.r.r.r.r.r.r.r.r.r.r.r.r.r.r.r.r.r.r.r.r.r.r.r.r.r.r.r.r.r.r.r.r.r.r.r.r.r.r.r.r.r.r.r.",
"r.r.r.r.r.r.r.r.r.r.r.r.r.r.r.r.r.r.r.r.r.r.r.r.r.r.r.r.r.r.r.r.r.r.r.r.r.r.r.r.r.r.r.r.r.r.r.r.",
"r.r.r.r.r.r.r.r.r.r.r.r.r.r.r.r.r.r.r.r.r.r.r.r.r.r.r.r.r.r.r.r.r.r.r.r.r.r.r.r.r.r.r.r.r.r.r.r.",
"r.r.r.r.r.r.r.r.r.r.r.r.r.r.r.r.r.r.r.r.r.r.r.r.r.r.r.r.r.r.r.r.r.r.r.r.r.r.r.r.r.r.r.r.r.r.r.r.",
"r.r.r.r.r.r.r.r.r.r.r.r.r.r.r.r.r.r.r.r.r.r.r.r.r.r.r.r.r.r.r.r.r.r.r.r.r.r.r.r.r.r.r.r.r.r.r.r.",
"r.r.r.r.r.r.r.r.r.r.r.r.r.r.r.r.r.r.r.r.r.r.r.r.r.r.r.r.r.r.r.r.r.r.r.r.r.r.r.r.r.r.r.r.r.r.r.r.",
"r.r.r.r.r.r.r.r.r.r.r.r.r.r.r.r.r.r.r.r.r.r.r.r.r.r.r.r.r.r.r.r.r.r.r.r.r.r.r.r.r.r.r.r.r.r.r.r.",
"r.r.r.r.r.r.r.r.r.r.r.r.r.r.r.r.r.r.r.r.r.r.r.r.r.r.r.r.r.r.r.r.r.r.r.r.r.r.r.r.r.r.r.r.r.r.r.r.",
"r.r.r.r.r.r.r.r.r.r.r.r.r.r.r.r.r.r.r.r.r.r.r.r.r.r.r.r.r.r.r.r.r.r.r.r.r.r.r.r.r.r.r.r.r.r.r.r.",
"r.r.r.r.r.r.r.r.r.r.r.r.r.r.r.r.r.r.r.r.r.r.r.r.r.r.r.r.r.r.r.r.r.r.r.r.r.r.r.r.r.r.r.r.r.r.r.r.",
"r.r.r.r.r.r.r.r.r.r.r.r.r.r.r.r.r.r.r.r.r.r.r.r.r.r.r.r.r.r.r.r.r.r.r.r.r.r.r.r.r.r.r.r.r.r.r.r.",
"r.r.r.r.r.r.r.u B : r.r.r.r.r.r.r.r.r.r.r.r.  6 0 : r.r.r.r.r.r.r.r.r.r.r.r.r.r.r.r.r.r.r.r.r.r.",
"r.r.r.r.r.r.# +.r.+.W 6 O r.r.r.r.r.r.#   _ | L S / o.f O r.r.r.r.r.r.r.r.r.r.r.r.r.r.r.r.r.r.r.",
"r.r.r.r.r.# r.q.r.r.r.r.| f 8 r.r.r.# 6 _ 8 X O # O X r.B u r.r.r.r.r.r.r.r.r.r.r.r.r.r.r.r.r.r.",
"r.r.r.r.r.# S r.r.r.r.r.r.r.r.G M M L G = # = = = = = # s u f r.r.r.r.r.r.r.r.r.r.r.r.r.r.r.r.r.",
"r.r.r.r.r.r.#.{ k # r.r.r.r.r.r.r.r.r.: = = = = = = = = : r.0 r.r.r.r.r.r.r.r.r.r.r.r.r.r.r.r.r.",
"r.r.r.r.r.r.r.r.r.*.A 0 6 r.r.r.r.r.= : : : : : : : : : = s r.v r.r.r.r.r.r.r.r.r.r.r.r.r.r.r.r.",
"r.r.r.r.r.r.r.r.r.r.r.r.T S k # r.r.: : : : , : : : : : : # +.r.G T R R R R R R T R K z r.r.r.r.",
"r.r.r.r.r.r.r.r.r.r.r.r.r.r.r./ z r., , : , , , , , , , , : ~ r.r.r.r.r.r.r.r.r.r.r.r.W r.r.r.r.",
"r.r.r.r.r.r.r.r.r.r.r.r.r.r.r.r.f k , , , , , , , , , , , : ~ r.r.r.r.r.r.r.r.r.r.r.8 2.r.r.r.r.",
"r.r.r.r.r.r.r.r.r.r.r.r.r.r.r.r.0 { , , 6 6 6 6 6 6 6 , 6 = &.r.= r.r.r.r.r.r.r.r.r.6 o.r.r.r.r.",
"r.r.r.r.r.r.r.r.r.r.r.r.r.r.r.r.r.#.: 6 6 , 6 , 6 , 6 6 , s | : #.*.*.*.*.*.*.*.*.*.*.2.r.r.r.r.",
"r.r.r.r.r.r.r.r.r.r.r.r.r.r.r.r.r.v r.6 6 8 6 8 6 6 6 6 6 +.u | r.r.r.r.r.r.r.r.r.r.r.r.r.r.r.r.",
"r.r.r.r.r.r.r.r.r.r.r.r.r.r.r.r.r., K v 8 8 8 8 8 8 6 8 ~ K M q.r.r.r.r.r.r.r.r.r.r.r.r.r.r.r.r.",
"r.r.r.r.r.r.r.r.r.r.r.r.r.r.r.r.r.r.f r.r.k , 6 6 , f +.L s 5.r.r.r.r.r.r.r.r.r.r.r.r.r.r.r.r.r.",
"r.r.r.r.r.r.r.r.r.r.r.r.r.r.r.r.r.8 v r.r.r.| W ~ +.#.k M 6.r.r.r.r.r.r.r.r.r.r.r.r.r.r.r.r.r.r.",
"r.r.r.r.r.r.r.r.r.r.r.r.r.r.r.r.r., 2.r.r.r., k A A T +.q.r.r.r.r.r.r.r.r.r.r.r.r.r.r.r.r.r.r.r.",
"r.r.r.r.r.r.r.r.r.r.r.r.r.r.r.r.8 / 6.r.r.u 2.,.,.r.r.r.r.r.r.r.r.r.r.r.r.r.r.r.r.r.r.r.r.r.r.r.",
"r.r.r.r.r.r.r.r.r.r.r.r.r.r.r.r.u 2.r.r.0 &.r.r.r.r.r.r.r.r.r.r.r.r.r.r.r.r.r.r.r.r.r.r.r.r.r.r.",
"r.r.r.r.r.r.r.r.r.r.r.r.r.r.r.r { r.r.r.B 0.r.r.r.r.r.r.r.r.r.r.r.r.r.r.r.r.r.r.r.r.r.r.r.r.r.r.",
"r.r.r.r.r.r.r.r.r.r.r.r.r.r.r.k 0.r.r.8 ,.r.r.r.r.r.r.r.r.r.r.r.r.r.r.r.r.r.r.r.r.r.r.r.r.r.r.r.",
"r.r.r.r.r.r.r.r.r.r.r.r.r.r.r ,.r.r.r.E r.r.r.r.r.r.r.r.r.r.r.r.r.r.r.r.r.r.r.r.r.r.r.r.r.r.r.r.",
"r.r.r.r.r.r.r.r.r.r.r.r.r.r.L 6.r.r.f 2.r.r.r.r.r.r.r.r.r.r.r.r.r.r.r.r.r.r.r.r.r.r.r.r.r.r.r.r.",
"r.r.r.r.r.r.r.r.r.r.r.r.r.u 2.r.r.u { r.r.r.r.r.r.r.r.r.r.r.r.r.r.r.r.r.r.r.r.r.r.r.r.r.r.r.r.r.",
"r.r.r.r.r.r.r.r.r.r.r.r.r.z K r.r.f 0.r.r.r.r.r.r.r.r.r.r.r.r.r.r.r.r.r.r.r.r.r.r.r.r.r.r.r.r.r.",
"r.r.r.r.r.r.r.r.r.r.r.r.r.r.M K 0 *.r.r.r.r.r.r.r.r.r.r.r.r.r.r.r.r.r.r.r.r.r.r.r.r.r.r.r.r.r.r.",
"r.r.r.r.r.r.r.r.r.r.r.r.r.r.r.L _ 5.r.r.r.r.r.r.r.r.r.r.r.r.r.r.r.r.r.r.r.r.r.r.r.r.r.r.r.r.r.r.",
"r.r.r.r.r.r.r.r.r.r.r.r.r.r.r.r.r.r.r.r.r.r.r.r.r.r.r.r.r.r.r.r.r.r.r.r.r.r.r.r.r.r.r.r.r.r.r.r.",
"r.r.r.r.r.r.r.r.r.r.r.r.r.r.r.r.r.r.r.r.r.r.r.r.r.r.r.r.r.r.r.r.r.r.r.r.r.r.r.r.r.r.r.r.r.r.r.r.",
"r.r.r.r.r.r.r.r.r.r.r.r.r.r.r.r.r.r.r.r.r.r.r.r.r.r.r.r.r.r.r.r.r.r.r.r.r.r.r.r.r.r.r.r.r.r.r.r.",
"r.r.r.r.r.r.r.r.r.r.r.r.r.r.r.r.r.r.r.r.r.r.r.r.r.r.r.r.r.r.r.r.r.r.r.r.r.r.r.r.r.r.r.r.r.r.r.r.",
"r.r.r.r.r.r.r.r.r.r.r.r.r.r.r.r.r.r.r.r.r.r.r.r.r.r.r.r.r.r.r.r.r.r.r.r.r.r.r.r.r.r.r.r.r.r.r.r.",
"r.r.r.r.r.r.r.r.r.r.r.r.r.r.r.r.r.r.r.r.r.r.r.r.r.r.r.r.r.r.r.r.r.r.r.r.r.r.r.r.r.r.r.r.r.r.r.r."
};
